<?xml version="1.0" standalone="no"?>
<!DOCTYPE svg PUBLIC "-//W3C//DTD SVG 20010904//EN"
 "http://www.w3.org/TR/2001/REC-SVG-20010904/DTD/svg10.dtd">
<svg version="1.0" xmlns="http://www.w3.org/2000/svg"
 width="500.000000pt" height="500.000000pt" viewBox="0 0 500.000000 500.000000"
 preserveAspectRatio="xMidYMid meet">

<g transform="translate(0.000000,500.000000) scale(0.100000,-0.100000)"
fill="#000000" stroke="none">
<path d="M1520 2500 l0 -980 980 0 980 0 0 980 0 980 -980 0 -980 0 0 -980z
m1900 0 l0 -920 -920 0 -920 0 0 920 0 920 920 0 920 0 0 -920z"/>
<path d="M2280 2679 l0 -282 133 5 c118 4 138 8 184 31 91 47 135 127 136 247
0 93 -28 164 -84 214 -53 49 -120 66 -256 66 l-113 0 0 -281z m264 158 c79
-44 108 -155 65 -243 -27 -58 -74 -85 -155 -92 l-64 -5 0 182 0 181 58 0 c40
0 68 -7 96 -23z"/>
<path d="M1918 2153 c-16 -4 -18 -18 -18 -114 l0 -109 45 0 c97 0 156 55 141
133 -8 44 -56 87 -96 87 -16 0 -34 2 -42 4 -7 2 -21 2 -30 -1z m116 -44 c20
-16 26 -29 26 -59 0 -21 -3 -46 -6 -55 -9 -23 -57 -45 -99 -45 l-35 0 0 90 0
90 44 0 c29 0 52 -7 70 -21z"/>
<path d="M2172 2140 c-37 -23 -66 -80 -57 -113 19 -68 56 -97 122 -97 119 0
155 164 47 215 -43 20 -73 19 -112 -5z m131 -40 c31 -34 34 -58 12 -100 -19
-36 -43 -50 -88 -50 -92 0 -121 129 -39 175 37 21 81 11 115 -25z"/>
<path d="M2403 2153 c-9 -3 -13 -36 -13 -114 0 -136 18 -146 22 -12 l3 97 39
-97 c22 -53 44 -97 50 -97 6 0 29 44 51 97 l40 96 3 -96 c4 -134 22 -124 22
12 0 89 -3 110 -16 115 -11 4 -20 -7 -35 -42 -11 -26 -30 -70 -42 -97 l-23
-49 -38 90 c-42 98 -45 104 -63 97z"/>
<path d="M2883 2153 c-9 -3 -13 -36 -13 -114 0 -136 18 -146 22 -12 l3 97 39
-97 c22 -53 44 -97 50 -97 6 0 29 44 51 97 l40 96 3 -96 c4 -134 22 -124 22
12 0 89 -3 110 -16 115 -11 4 -20 -7 -35 -42 -11 -26 -30 -70 -42 -97 l-23
-49 -38 90 c-42 98 -45 104 -63 97z"/>
<path d="M2670 2060 c0 -105 14 -130 75 -130 61 0 75 25 75 130 0 50 -4 90 -9
90 -5 0 -11 -41 -13 -90 -3 -96 -10 -110 -55 -110 -42 0 -53 25 -53 116 0 49
-4 84 -10 84 -6 0 -10 -37 -10 -90z"/>
<path d="M2278 1854 c-5 -4 -8 -56 -8 -116 l0 -108 60 0 c33 0 60 4 60 10 0 6
-22 10 -50 10 l-49 0 -3 106 c-2 58 -6 102 -10 98z"/>
<path d="M2984 1852 c-6 -4 -28 -46 -49 -94 -21 -49 -39 -88 -40 -88 -2 0 -20
41 -41 90 -28 66 -43 90 -56 90 -16 0 -18 -11 -18 -110 0 -137 18 -148 22 -13
l3 97 39 -97 c22 -53 44 -97 50 -97 6 0 29 44 51 97 l40 96 3 -96 c4 -138 22
-123 22 18 0 112 -3 123 -26 107z"/>
<path d="M1989 1803 c56 -140 70 -168 82 -168 14 0 103 204 94 213 -9 10 -22
-11 -56 -96 -39 -96 -40 -96 -85 23 -16 41 -34 75 -41 75 -9 0 -8 -13 6 -47z"/>
<path d="M2200 1740 c0 -67 4 -110 10 -110 6 0 10 43 10 110 0 67 -4 110 -10
110 -6 0 -10 -43 -10 -110z"/>
<path d="M2410 1740 l0 -110 73 0 74 0 16 40 c15 39 16 40 67 40 51 0 52 -1
67 -40 9 -22 22 -40 29 -40 9 0 2 26 -22 83 -20 45 -41 94 -46 110 -19 53 -41
34 -87 -75 l-43 -103 -54 3 -54 4 0 99 c0 59 -4 99 -10 99 -6 0 -10 -43 -10
-110z m250 43 c8 -21 16 -41 18 -45 2 -5 -15 -8 -38 -8 -23 0 -40 3 -38 8 2 4
10 24 18 45 8 20 17 37 20 37 3 0 12 -17 20 -37z"/>
<path d="M3528 3029 c-21 -12 -24 -49 -6 -67 7 -7 35 -11 68 -10 l55 2 -52 3
c-53 4 -79 22 -69 48 4 11 20 15 55 15 27 0 53 5 56 10 8 13 -84 13 -107 -1z"/>
<path d="M3568 2913 c63 -4 70 -10 56 -47 -9 -23 -45 -20 -51 4 -6 24 -12 25
-40 1 -30 -25 -29 -36 1 -16 21 14 24 14 29 0 7 -18 48 -20 65 -3 7 7 12 25
12 40 l0 28 -67 -2 -68 -2 63 -3z"/>
<path d="M3510 2793 c0 -44 11 -53 64 -50 50 3 66 16 66 55 0 21 -4 22 -65 22
-64 0 -65 0 -65 -27z m58 -15 c-2 -15 -10 -23 -23 -23 -13 0 -21 8 -23 23 -3
18 1 22 23 22 22 0 26 -4 23 -22z m60 5 c-2 -10 -12 -18 -23 -18 -11 0 -21 8
-23 18 -3 13 3 17 23 17 20 0 26 -4 23 -17z"/>
<path d="M3510 2721 c0 -5 9 -11 20 -14 28 -7 28 -62 -1 -77 -11 -7 -19 -14
-16 -16 6 -7 127 47 127 56 0 5 -12 13 -27 18 -16 6 -45 17 -65 26 -21 9 -38
12 -38 7z m87 -42 c26 -10 27 -12 8 -19 -33 -14 -45 -11 -45 10 0 23 0 23 37
9z"/>
<path d="M3564 2581 l60 -6 -57 -38 c-31 -20 -57 -39 -57 -42 0 -3 30 -4 68
-3 l67 1 -55 6 -55 6 53 34 c28 18 52 37 52 42 0 5 -30 8 -67 7 l-68 -1 59 -6z"/>
<path d="M3537 2403 c26 -3 33 -9 36 -31 l4 -27 2 28 c1 22 6 27 25 27 19 0
26 -6 29 -27 4 -26 4 -26 6 5 l1 32 -67 -2 c-38 0 -54 -3 -36 -5z"/>
<path d="M3510 2331 c0 -5 9 -11 20 -14 28 -7 28 -62 -1 -77 -11 -7 -19 -14
-16 -16 6 -7 127 47 127 56 0 5 -12 13 -27 18 -16 6 -45 17 -65 26 -21 9 -38
12 -38 7z m87 -42 c26 -10 27 -12 8 -19 -33 -14 -45 -11 -45 10 0 23 0 23 37
9z"/>
<path d="M3568 2193 c63 -4 70 -10 56 -47 -9 -23 -45 -20 -51 4 -6 24 -12 25
-40 1 -30 -25 -29 -36 1 -16 21 14 24 14 29 0 7 -18 48 -20 65 -3 7 7 12 25
12 40 l0 28 -67 -2 -68 -2 63 -3z"/>
<path d="M3510 2090 c0 -5 21 -10 48 -11 l47 -1 -47 -21 c-27 -11 -48 -24 -48
-27 0 -3 21 -16 48 -27 l47 -21 -47 -1 c-27 -1 -48 -5 -48 -11 0 -13 117 -13
125 0 4 6 -16 20 -44 33 -28 12 -51 24 -51 28 0 3 23 15 50 26 69 29 64 43
-15 43 -37 0 -65 -4 -65 -10z"/>
</g>
</svg>
